/* XPM */
static char * remood_xpm[] = {
"64 64 274 2",
"  	c None",
". 	c #360000",
"+ 	c #4C0000",
"@ 	c #410000",
"# 	c #380000",
"$ 	c #290000",
"% 	c #1F0000",
"& 	c #0C0000",
"* 	c #180000",
"= 	c #320000",
"- 	c #420000",
"; 	c #590000",
"> 	c #5C0000",
", 	c #4D0000",
"' 	c #670000",
") 	c #6D0000",
"! 	c #710000",
"~ 	c #5A0000",
"{ 	c #4E0000",
"] 	c #3E0000",
"^ 	c #370000",
"/ 	c #270000",
"( 	c #1B0000",
"_ 	c #0F0000",
": 	c #0B0000",
"< 	c #3B0000",
"[ 	c #450000",
"} 	c #630000",
"| 	c #5B0000",
"1 	c #390000",
"2 	c #4B0000",
"3 	c #7D0000",
"4 	c #930000",
"5 	c #7B0000",
"6 	c #7E0000",
"7 	c #860000",
"8 	c #650000",
"9 	c #550000",
"0 	c #490000",
"a 	c #2B0000",
"b 	c #220000",
"c 	c #240000",
"d 	c #150000",
"e 	c #400000",
"f 	c #230000",
"g 	c #2A0000",
"h 	c #200000",
"i 	c #3A0000",
"j 	c #6F0000",
"k 	c #890000",
"l 	c #A40000",
"m 	c #980000",
"n 	c #A60000",
"o 	c #9E0000",
"p 	c #8A0000",
"q 	c #8C0000",
"r 	c #5D0000",
"s 	c #530000",
"t 	c #540000",
"u 	c #4F0000",
"v 	c #330000",
"w 	c #1D0000",
"x 	c #160000",
"y 	c #3F0000",
"z 	c #1A0000",
"A 	c #210000",
"B 	c #310000",
"C 	c #A10000",
"D 	c #B10000",
"E 	c #B40000",
"F 	c #AC0000",
"G 	c #A70000",
"H 	c #B00000",
"I 	c #6B0000",
"J 	c #640000",
"K 	c #510000",
"L 	c #300000",
"M 	c #080000",
"N 	c #0E0000",
"O 	c #1C0000",
"P 	c #340000",
"Q 	c #190000",
"R 	c #260000",
"S 	c #700000",
"T 	c #990000",
"U 	c #AA0000",
"V 	c #AE0000",
"W 	c #A80000",
"X 	c #BA0000",
"Y 	c #B70000",
"Z 	c #B80000",
"` 	c #730000",
" .	c #690000",
"..	c #610000",
"+.	c #3D0000",
"@.	c #050000",
"#.	c #250000",
"$.	c #170000",
"%.	c #120000",
"&.	c #8E0000",
"*.	c #760000",
"=.	c #820000",
"-.	c #770000",
";.	c #900000",
">.	c #960000",
",.	c #D00000",
"'.	c #CA0000",
").	c #BF0000",
"!.	c #CB0000",
"~.	c #920000",
"{.	c #810000",
"].	c #5F0000",
"^.	c #130000",
"/.	c #100000",
"(.	c #430000",
"_.	c #880000",
":.	c #830000",
"<.	c #C10000",
"[.	c #B30000",
"}.	c #C40000",
"|.	c #CE0000",
"1.	c #D40000",
"2.	c #C80000",
"3.	c #BC0000",
"4.	c #A20000",
"5.	c #850000",
"6.	c #2E0000",
"7.	c #350000",
"8.	c #780000",
"9.	c #6E0000",
"0.	c #A30000",
"a.	c #A00000",
"b.	c #A90000",
"c.	c #AB0000",
"d.	c #B20000",
"e.	c #B60000",
"f.	c #C00000",
"g.	c #CD0000",
"h.	c #C20000",
"i.	c #D60000",
"j.	c #E00000",
"k.	c #E10000",
"l.	c #D70000",
"m.	c #E20000",
"n.	c #800000",
"o.	c #570000",
"p.	c #470000",
"q.	c #910000",
"r.	c #9C0000",
"s.	c #CC0000",
"t.	c #D30000",
"u.	c #DF0000",
"v.	c #EC0000",
"w.	c #E40000",
"x.	c #BE0000",
"y.	c #940000",
"z.	c #720000",
"A.	c #740000",
"B.	c #660000",
"C.	c #2D0000",
"D.	c #7C0000",
"E.	c #AD0000",
"F.	c #870000",
"G.	c #840000",
"H.	c #BB0000",
"I.	c #C50000",
"J.	c #C60000",
"K.	c #DD0000",
"L.	c #D50000",
"M.	c #F00000",
"N.	c #EA0000",
"O.	c #EF0000",
"P.	c #FA0000",
"Q.	c #EE0000",
"R.	c #D10000",
"S.	c #A50000",
"T.	c #790000",
"U.	c #560000",
"V.	c #280000",
"W.	c #750000",
"X.	c #6C0000",
"Y.	c #9D0000",
"Z.	c #FB0000",
"`.	c #F80000",
" +	c #FE0000",
".+	c #FF0909",
"++	c #ED0000",
"@+	c #E50000",
"#+	c #4A0000",
"$+	c #140000",
"%+	c #460000",
"&+	c #CF0000",
"*+	c #FF0000",
"=+	c #FF0A0A",
"-+	c #FF0606",
";+	c #FF2121",
">+	c #FF0B0B",
",+	c #DA0000",
"'+	c #9F0000",
")+	c #500000",
"!+	c #580000",
"~+	c #6A0000",
"{+	c #D20000",
"]+	c #FC0000",
"^+	c #FF1313",
"/+	c #FF1616",
"(+	c #FF1E1E",
"_+	c #E60000",
":+	c #520000",
"<+	c #090000",
"[+	c #480000",
"}+	c #440000",
"|+	c #B50000",
"1+	c #BD0000",
"2+	c #C30000",
"3+	c #B90000",
"4+	c #DC0000",
"5+	c #FF0505",
"6+	c #FF1A1A",
"7+	c #FF0707",
"8+	c #FF0202",
"9+	c #FF0101",
"0+	c #F70000",
"a+	c #F40000",
"b+	c #9A0000",
"c+	c #3C0000",
"d+	c #7A0000",
"e+	c #7F0000",
"f+	c #C70000",
"g+	c #FF0F0F",
"h+	c #FFFFFF",
"i+	c #AF0000",
"j+	c #E30000",
"k+	c #F90000",
"l+	c #2F0000",
"m+	c #DE0000",
"n+	c #D80000",
"o+	c #1E0000",
"p+	c #0A0000",
"q+	c #950000",
"r+	c #0D0000",
"s+	c #060000",
"t+	c #070000",
"u+	c #620000",
"v+	c #600000",
"w+	c #8F0000",
"x+	c #9B0000",
"y+	c #110000",
"z+	c #5E0000",
"A+	c #970000",
"B+	c #2C0000",
"C+	c #8B0000",
"D+	c #FF1515",
"E+	c #E80000",
"F+	c #F30000",
"G+	c #E90000",
"H+	c #F10000",
"I+	c #F20000",
"J+	c #FF0404",
"K+	c #F50000",
"L+	c #8D0000",
"M+	c #EB0000",
"N+	c #FF0303",
"O+	c #FF1010",
"P+	c #FF1D1D",
"Q+	c #C90000",
"R+	c #FF1414",
"S+	c #DB0000",
"T+	c #E70000",
"U+	c #D90000",
"V+	c #680000",
"W+	c #FF1717",
"X+	c #F60000",
"Y+	c #030000",
"                                                  . + @ # $ % % & * $ = - ; >                                                   ",
"                                          , ' ; ) ! ~ { + ] ^ / * ( _ : < [ } | 1 } 2                                           ",
"                                      } 3 4 4 5 6 7 8 ) 9 2 0 a 1 b c d e [ , f g < : h i                                       ",
"                                  j k l m m n o m p q 5 r s t u < v * w v = x g y z A % ( d B                                   ",
"                              ' 6 p C D l n E F G H o 5 I J K + @ L M N N x O c P * b d * N Q R K                               ",
"                            S 6 T p U V U W F X Y Z C 7 `  ...~ 8 +.@.N ( h $ w #.f $.% %.d 1 t &.*.                            ",
"                        ) =.-.;.>.G D H n E ,.'.).!.n ~.{.!  .].; ^ _ * h / f R d ^./.(.#.K  .~.=.I _.:.                        ",
"                      q m >.7 ;.D <.[.}.V |.1.,.2.,.3.4.7 =.5.5 P 6.$ w ( ( a : % #.7. ...8.q 9., } m V ~.                      ",
"                    7 0.a.b.c.d.e.f.Z g.h.i.j.k.l.m.,.E 4.;.n.:.K / R ^.: _ a $.o.K ) =.p :.u = p.I q.4.h.r.                    ",
"                  n.n.&.o n U e.}.'.!.!.s.|.t.u.m.v.w.1.x.l y.z.s 1 . 7.R #.^ (.0 A.! n.B.] _ C.o.D.&.n E.V y.                  ",
"                F.5 G.7 p n H.I.J.I.d.K.g.L.i.M.N.O.P.Q.R.f.S.T.j s U.0 i V.] ^ y  .| u #.^.% v - ..9.j W.8.X.k                 ",
"              S.;.~.q.>.Y.Y.m W F V J.L.J.w.O.w.Z.`. +.+++@+X n.A.8  .z.K h , z 7.#+i w w $+1 +.%+^ 0 2 9 |  .3 o               ",
"            k V [.F E.h.).3.H.f.&+2.&+1.&+N.*+++P.=+-+;+>+,+e.d.c.'+m T.0 A B : / / & $ h $./ v )+!+; ~+! D.D.5 Y.;.            ",
"            H W n n ).H.x.2.1.{+1.v.M.v.w.`.++]+^+]+/+(+>+*+j.u._+s.C ) :+^ $.Q <+^.7.[+N #.+.}+y s | j 5 n.5 n.` n.            ",
"          >.|+1+l l d.2+3+x.2+4+`.5+Z.Q.`.O.>+6+.+7+8+9+7+0+M.a+N.}.b+8 o.- $.w R p.' u * ( B c+y { s S d+A.e+~+} j T.          ",
"        &.1+f+x.E H.h.J.s.!.m.]+g+g+h+h+h+h+h+h+h+h+h+h+h+h+h+h+h+h+h+h+h+h+h+h+h+h+~+# ^.x $+( v % 6.+ + ' t 0 ..; | )         ",
"        i+f.,+h.,.M.j+w.N.Q.k+]+a+M.h+h+h+h+h+h+h+h+h+h+h+h+h+h+h+h+h+h+h+h+h+h+h+h+h+h+h+f A * /.%.# l+s p.l+^ # y [ v         ",
"      >.s.&+m+i.j.m+,+j.4+n+,.j.n+,.h+h+h+h+h+h+h+h+h+h+h+h+h+h+h+h+h+h+h+h+h+h+h+h+h+h+h+h+_ ^.A o+< @ y c = 6.6.. _ z s       ",
"      Z 1.g.2.h.H.H.H e.2.2+X E s.).h+h+h+h+h+h+h+h+h+h+h+h+h+h+h+h+h+h+h+h+h+h+h+h+h+h+h+h+h+p+_ f 1 A f $ R d a Q v u :+      ",
"    F.H.e.F W m r.b+T S.q+l x.V Z m h+h+h+h+h+h+h+h+h+h+h+h+h+h+h+h+h+h+h+h+h+h+h+h+h+h+h+h+h+h+l+a / b $ 1 ^ ( * $ 7.y K |     ",
"    q+0.m =.T.` S p =.T.~.l r.4.&.j h+h+h+h+h+h+h+h+h+h+h+h+h+h+h+h+h+h+h+h+h+h+h+h+h+h+h+h+h+h+c+1 7.7.B %+%.x r+O v e (.K     ",
"  !+F.3 5 J )+#+%+K 8 ; -.4 q F.~ s h+h+h+h+h+h+h+h+h+h+h+h+h+h+h+h+h+h+h+h+h+h+h+h+h+h+h+h+h+h+h+; !+2 s a & N %.^.v B 7.y s   ",
"  } r B.9 - 1 a $ v u } I k :.=., +.h+h+h+h+h+h+h+h+h+h+h+h+h+h+h+h+h+h+h+h+h+h+h+h+h+h+h+h+h+h+h+I ~ X.9 # ^.s+N t+( # (.+ U.  ",
"  { @ 0 ; K 0 @ v / . K ` W.k I c+Q h+h+h+h+h+h+h+h+h+h+h+] ].A.B.}+Q $ @ h+h+h+h+h+h+h+h+h+h+h+h+T.3 D.[ y ( ^.$+@.N ^.C.(.,   ",
"  (.{ 0 + 9 u+} > v+} } j ` T.o.w p+h+h+h+h+h+h+h+h+h+h+h+! e+A.0 v < w+7 c.h+h+h+h+h+h+h+h+h+h+h+x+m J [ ^ w l+d <+y+& N g (.  ",
"c+$+/ i e < K s o.9 ].) )  .I %+/.f h+h+h+h+h+h+h+h+h+h+h+6 k )+[+^ q E E ).h+h+h+h+h+h+h+h+h+h+h+i+F.G.I @ $ < f _ <+p+N : $+^ ",
"v #.#.f f v u o.; r ~ | 2 !+K $ z . h+h+h+h+h+h+h+h+h+h+h+p 3 z+v+9.e.s.f+<.h+h+h+h+h+h+h+h+h+h+h+r.>.T.0 C.< [ +.^ v f : t+/.1 ",
". }+, (., p.[+- @ 1 y < +.. y+y+A ^ h+h+h+h+h+h+h+h+h+h+h+n.e+&.~.d.h.&+h+h+h+h+h+h+h+h+h+h+h+h+h+~.q ) )+1 V.l+< y ^ C.* ^./.c ",
"$ . v / l+7.c+w ( a v a C.v a <+h L h+h+h+h+h+h+h+h+h+h+h+h+h+h+h+h+h+h+h+h+h+h+h+h+h+h+h+h+h+h+5.A.W.X.+ v ^ b y+/.M : y+x _ w ",
"Q w w $.^.Q O b % o+h $+w $+& /.^.C.h+h+h+h+h+h+h+h+h+h+h+h+h+h+h+h+h+h+h+h+h+h+h+h+h+h+h+h+h+h+3 k -.v+8 !+2 @ v l+f y+p+_ Q d ",
"A ^.^.%.^.$.c l+- @ f f ( x $ L h z h+h+h+h+h+h+h+h+h+h+h+h+h+h+h+h+h+h+h+h+h+h+h+h+h+h+h+h+h+&.n W C A+_.G.K 1 c+< 7.C.h w t+$+",
"/ %.$+#.L B P y # y + , u y / ^.o+c h+h+h+h+h+h+h+h+h+h+h+h+h+h+h+h+h+h+h+h+h+h+h+h+h+h+h+h+h+X '.3+d.'+;.e+B.p.c+@ v # l+% $ B+",
"/ L B+L 7.e # }+p., )+0 u [ ^.% v . h+h+h+h+h+h+h+h+h+h+h+h+h+h+h+h+h+h+h+h+h+h+h+h+h+h+h+h+,+,.f.[.y.T.` 9.; o.#+, , p.] ^ 7.b ",
"h b O w B+^ (.[ +.e y C.O $.w z w $.h+h+h+h+h+h+h+h+h+h+h+h+h+h+h+h+h+h+h+h+h+h+h+h+h+h+m._+,+X l E o o A+{.T.W.K o.t p.- C.A x ",
"y ; s p.] $ Q o+h w % d ^.r+: y+o+f h+h+h+h+h+h+h+h+h+h+h+h+h+h+h+h+h+h+h+h+h+h+h+.+k+g.W &.&.d.|+C 3 =.C+X.U.] u @ p.A h $._ % ",
"p.v+} v+..[+v a = B %.^.%.w $ N h V.h+h+h+h+h+h+h+h+h+h+h+h+h+h+h+h+h+h+h+h+h+h+h+h+h+h+-.*._.=...}  .p.v a $ p.f a _ %.O w / v ",
"| I  .!+[ B+% N N r+* z * L # c d O h+h+h+h+h+h+h+h+h+h+h+&+N.v.h+h+h+h+h+h+h+h+h+h+h+h+h+..:+(.}+0 v / % $ % r+r+r+Q g . p.} s ",
"9.=.S u+r i % d y+y+/.y+% A : & & y+h+h+h+h+h+h+h+h+h+h+h+m.n+j.Q.D+h+h+h+h+h+h+h+h+h+h+h+h+a z _ ^.p+* ( f O f < (.u 9 z+X.X.! ",
"}+5.W...o.e A ^.<+^.( b ^.Q h a (.B h+h+h+h+h+h+h+h+h+h+h+h.i.!.2.M.h+h+h+h+h+h+h+h+h+h+h+h+h+r+_ b V.^ ] + s } K X.8.7 :.6 4.j ",
"  [ p.7.% Q r+: N %.Q y+$.P t | !+~ h+h+h+h+h+h+h+h+h+h+h+x.0.V V i+E h+h+h+h+h+h+h+h+h+h+h+h+% #.+.(.U.v+v+ .].:+! {.w+&.F E   ",
"  / x y+% o+Q : : & : f (.t :+8 j d+h+h+h+h+h+h+h+h+h+h+h+r.>.y.7 {.j ..h+h+h+h+h+h+h+h+h+h+h+h+7.^ @ , s - 2 ..A+~.a.|+|.4+W   ",
"  l+& : %.r+y+<+_ w P + , 2 s r ..G.h+h+h+h+h+h+h+h+h+h+h+0.l W.9.! v+; h+h+h+h+h+h+h+h+h+h+h+h+/.N w #.[ ` q+0.i+}.f+<.,.4+4.  ",
"  z+d t+<+y+_ : /.c y u P p.{ -.7 q h+h+h+h+h+h+h+h+h+h+h+W.e+A. .!+r I 9 h+h+h+h+h+h+h+h+h+h+h+h+# K ].j :.;.d.2.1.m+E+F+Q.n.  ",
"    g @.& _ #.$ c C.i K < u D.&.x+4.h+h+h+h+h+h+h+h+h+h+h+=.X. .z+' ) | +.h+h+h+h+h+h+h+h+h+h+h+h+p.| ' ` _.d.J.,+,+u.G+H+i.    ",
"    [ y+v %.Q % 1 (.#+..0 W.T.:.;.m h+h+h+h+h+h+h+h+h+h+h+j ].0 .. .' ^ Q o+h+h+h+h+h+h+h+h+h+h+h+h+~+e+4 n H |+2.L.@+N.`.E     ",
"      2 ] _ : _ e p., X.-.*.{.5.a.n.h+h+h+h+h+h+h+h+h+h+h+!+U.8 X.9 f & <+: h+h+h+h+h+h+h+h+h+h+h+h+` =.4 G }.j+I+J+K+.+`.      ",
"      | R f z _ 1 , J -.{.L+F.&.m q+h+h+h+h+h+h+h+h+h+h+h+p.K u+2 l+^.w z Q h h+h+h+h+h+h+h+h+h+h+h+h+D 2.@+M+a+>+N+Z.N+2.      ",
"        < ] % ^.# ].*.G.q ;.A+r.'+H.h+h+h+h+h+h+h+h+h+h+h+i | { a r+t+M ( A g h+h+h+h+h+h+h+h+h+h+h+h+|.,.n+N.7+O+g+P+=+        ",
"        U.e _ $.[ ` T.e+7 C+y.n |+~.h+h+h+h+h+h+h+h+h+h+h+f u ] A y+#.w f f = { h+h+h+h+h+h+h+h+h+h+h+h+!.n+w.M.5+=+.+Z         ",
"          / : V.} D.7 ~.4 Y.x+5 v+c+P w v < C.o+1 < B < $ c #./ #.@.w = ] , ..s  .A.5 =.F H.E 3.E ).J.m+m.0+ +k+-+^+E+          ",
"            $.< ; 3 >.m :.` v+8 !+$ Q y 9 (./ h ^ [+(.l+c _ O & r+<+x p.; z.T.=.q.T l E a.4.H Q+j.N.O.M.P.R+g+5+P.]+            ",
"            :+u+' p Y.e+} o.U.< o+V.[ ; U.y o+h C.c+1 C.$.x y+/.^.* / [+0 J T.D.7 L+W C 3.,+M+E+S+,+T+P.-+-+5+8+k+x+            ",
"              )+{.;.e+) ; o.C.x 6.y 9 ' 0 y v ( w B $.d t+y+Q $.7.o.8  .5 D.A.L+_.G 4.3.n+l.U+1.N.m+a+F+]+8+ +`.}.              ",
"                > _.I 9 B+: <+#.^ | V+8 ] < ^ /.y+_ <+r+_ ( R [+r I I T.=.5 p l W |+).h.n+S+4+w.P.F+O.++J+W+D+!.                ",
"                  s t y Q <+/.% 2 W.` r %+B+_ M _ N M <+: # , K 2 | !+p.u v+I 7 7 >.G 1.|.U+N.X+N+.+F+_+]+=+g.                  ",
"                    K 7.%.( : B+} =.W. .!+$ a : ^.r+<+t+$ C.7.< / [+, c+[ } 5 G.L+r.}.2.,+T+++O.k+9+N.`.P.f.                    ",
"                      2 _ N c 2 8.=.` v+7.B+#.x r+/.<+* $+$.%.V.( v P < r I y.l l E I.Q+'.|.K.@+ +E+w.P.Z                       ",
"                        ; B , S &.G.j 1 z #.h <+p+r+r+%._ ^.: w N b s  .! I y.r.a.E.f+).R.4+4+I+w.4+n+y.                        ",
"                            -.~.;.{. .B+/ * b t+<+M d r+_ : $.r+z / 8 =.-.7 ;.m o n J.h.l.1.v.T+n+|+                            ",
"                              q+A+7 ' B+P O c t+r+: _ $.( _ d z * f I ! W.T._.y.'+e.}.I.U+n+k.f.q                               ",
"                                  _.:+B+C.$.A Y+: $.M r+^.x d $+( 6.j S D.n.p y.Y.[.x.f+S+f+a.                                  ",
"                                       .- %.d <+<+^.p+6.^ ] (.{ u 9 ` I n._.o l F 3.2+H &.                                      ",
"                                          D.# ^ x ( z b +.< p.2 ; 8 j ~+~ _.m U ~.;.}                                           ",
"                                                  9 C.(.i = L #.. 2 !+| 2 u+r                                                   "};
