/* XPM */
static char * remood_xpm[] = {
"64 64 249 2",
"  	c None",
". 	c #8B0000",
"+ 	c #A10000",
"@ 	c #B30000",
"# 	c #9F0000",
"$ 	c #AC0000",
"% 	c #930000",
"& 	c #650000",
"* 	c #620000",
"= 	c #860000",
"- 	c #9E0000",
"; 	c #9B0000",
"> 	c #B90000",
", 	c #C10000",
"' 	c #A60000",
") 	c #C60000",
"! 	c #BD0000",
"~ 	c #B10000",
"{ 	c #890000",
"] 	c #530000",
"^ 	c #420000",
"/ 	c #6B0000",
"( 	c #8F0000",
"_ 	c #990000",
": 	c #A50000",
"< 	c #B40000",
"[ 	c #C00000",
"} 	c #C80000",
"| 	c #A80000",
"1 	c #AE0000",
"2 	c #B00000",
"3 	c #820000",
"4 	c #BF0000",
"5 	c #910000",
"6 	c #8D0000",
"7 	c #7E0000",
"8 	c #6D0000",
"9 	c #560000",
"0 	c #4D0000",
"a 	c #460000",
"b 	c #6F0000",
"c 	c #870000",
"d 	c #720000",
"e 	c #800000",
"f 	c #950000",
"g 	c #AD0000",
"h 	c #C50000",
"i 	c #A30000",
"j 	c #9C0000",
"k 	c #C40000",
"l 	c #970000",
"m 	c #830000",
"n 	c #790000",
"o 	c #8C0000",
"p 	c #450000",
"q 	c #5C0000",
"r 	c #660000",
"s 	c #980000",
"t 	c #B20000",
"u 	c #AB0000",
"v 	c #920000",
"w 	c #9D0000",
"x 	c #A00000",
"y 	c #940000",
"z 	c #900000",
"A 	c #8E0000",
"B 	c #A70000",
"C 	c #A40000",
"D 	c #960000",
"E 	c #630000",
"F 	c #780000",
"G 	c #6E0000",
"H 	c #510000",
"I 	c #760000",
"J 	c #BC0000",
"K 	c #B80000",
"L 	c #B70000",
"M 	c #C30000",
"N 	c #9A0000",
"O 	c #850000",
"P 	c #7C0000",
"Q 	c #880000",
"R 	c #4C0000",
"S 	c #410000",
"T 	c #750000",
"U 	c #550000",
"V 	c #610000",
"W 	c #7B0000",
"X 	c #BE0000",
"Y 	c #C70000",
"Z 	c #AF0000",
"` 	c #BB0000",
" .	c #B60000",
"..	c #710000",
"+.	c #7D0000",
"@.	c #740000",
"#.	c #8A0000",
"$.	c #4A0000",
"%.	c #5E0000",
"&.	c #810000",
"*.	c #A90000",
"=.	c #CA0000",
"-.	c #CF0000",
";.	c #CD0000",
">.	c #CE0000",
",.	c #D00000",
"'.	c #840000",
").	c #7F0000",
"!.	c #690000",
"~.	c #C20000",
"{.	c #C90000",
"].	c #CB0000",
"^.	c #CC0000",
"/.	c #D10000",
"(.	c #B50000",
"_.	c #D50000",
":.	c #D80000",
"<.	c #DA0000",
"[.	c #AA0000",
"}.	c #BA0000",
"|.	c #A20000",
"1.	c #D30000",
"2.	c #D40000",
"3.	c #DC0000",
"4.	c #D70000",
"5.	c #E00000",
"6.	c #7A0000",
"7.	c #D90000",
"8.	c #FFFFFF",
"9.	c #FCFAFA",
"0.	c #DCB0B0",
"a.	c #E10000",
"b.	c #E40000",
"c.	c #E30000",
"d.	c #DB0000",
"e.	c #DD0000",
"f.	c #E80000",
"g.	c #5B0000",
"h.	c #4E0000",
"i.	c #700000",
"j.	c #600000",
"k.	c #4F0000",
"l.	c #E90000",
"m.	c #D60000",
"n.	c #D20000",
"o.	c #E70000",
"p.	c #EA0000",
"q.	c #6C0000",
"r.	c #EE0000",
"s.	c #580000",
"t.	c #5A0000",
"u.	c #E60000",
"v.	c #F00000",
"w.	c #EF0000",
"x.	c #540000",
"y.	c #570000",
"z.	c #520000",
"A.	c #B13A3A",
"B.	c #F7DADA",
"C.	c #590000",
"D.	c #500000",
"E.	c #E20000",
"F.	c #EC0000",
"G.	c #F70000",
"H.	c #680000",
"I.	c #6A0000",
"J.	c #5F0000",
"K.	c #3E0000",
"L.	c #770000",
"M.	c #EB0000",
"N.	c #F30000",
"O.	c #F60000",
"P.	c #4B0000",
"Q.	c #440000",
"R.	c #E50000",
"S.	c #640000",
"T.	c #3C0000",
"U.	c #3A0000",
"V.	c #3B0000",
"W.	c #470000",
"X.	c #5D0000",
"Y.	c #380000",
"Z.	c #3F0000",
"`.	c #360000",
" +	c #390000",
".+	c #730000",
"++	c #490000",
"@+	c #480000",
"#+	c #370000",
"$+	c #350000",
"%+	c #400000",
"&+	c #130000",
"*+	c #0D0000",
"=+	c #F4EAEA",
"-+	c #150000",
";+	c #070000",
">+	c #670000",
",+	c #040000",
"'+	c #140000",
")+	c #E2D3D3",
"!+	c #2B0000",
"~+	c #200000",
"{+	c #190000",
"]+	c #300000",
"^+	c #3D0000",
"/+	c #240000",
"(+	c #2E0000",
"_+	c #290000",
":+	c #1B0000",
"<+	c #210000",
"[+	c #0B0000",
"}+	c #1A0000",
"|+	c #2C0000",
"1+	c #430000",
"2+	c #230000",
"3+	c #0A0000",
"4+	c #280000",
"5+	c #1C0000",
"6+	c #180000",
"7+	c #2F0000",
"8+	c #250000",
"9+	c #320000",
"0+	c #1F0000",
"a+	c #080000",
"b+	c #170000",
"c+	c #0E0000",
"d+	c #050000",
"e+	c #160000",
"f+	c #260000",
"g+	c #270000",
"h+	c #1D0000",
"i+	c #2D0000",
"j+	c #220000",
"k+	c #120000",
"l+	c #060000",
"m+	c #1E0000",
"n+	c #340000",
"o+	c #330000",
"p+	c #100000",
"q+	c #0F0000",
"r+	c #110000",
"s+	c #0C0000",
"t+	c #030000",
"u+	c #2A0000",
"v+	c #703939",
"w+	c #310000",
"x+	c #020000",
"y+	c #090000",
"z+	c #010000",
"                                                          . + @ # $ %                                                           ",
"                                              & * = - ; > , ' + ) . ' ! , . ~ - {                                               ",
"                                        ] ^ / ( _ : + $ < [ } | 1 2 { % 3 : 4 5 6 ( 7 8                                         ",
"                                    9 0 a b c d e f - g @ h i j 4 k i l ; c m ' ' n o _ + {                                     ",
"                                b p ] q r c s t , u t ! g + s v v ; w x y z A < < m : y _ B C D                                 ",
"                              E F G H b I # < J k K L } M j N ; u _ B $ _ v ' ; g x w B O A f P Q                               ",
"                          P e R S T U V W s [ X 4 Y 4 Z i < B L 2 `  .X s : u $ C x f s f o c j c ..+.                          ",
"                        @.f y #.6 $.H %.&.+ 4 L : t > J ' *.[ =.-.;.>.-.,.h [ : x J y f ' _ - v 3 3 '.c                         ",
"                      % ; N ; F ).!.!.* B , $ L ~.{.{.].{.} ~.>.=.].^.;./.;.,./.(.| 4 4 >.1 *.*.( ( m 5 P                       ",
"                    ( W ' C 6 ' +.| P T X , < X ~.< ~ Z @ K J k X J > {._.Y ].h M [ ` > ^.:.<. .K : - [.c &.                    ",
"                  ( y (.1 *.' }.1 J > n % [.#.# A }.=.) [.g : |.u Z 2 u /./.1.:.k [ _.2.1.;.-.3.:.2 ~.' | t .                   ",
"                E n ).(.K (.J L X 6 !.m 3 6 z $ ~ ~.o ) z s % + i N # N i  .! Y >.,.> :.k ,.M k 4.;.5.~.(.k ! D                 ",
"              x $ T l f C ` | = x 6.%.y 7 O : 6 t }.[ h { F A o _ Q { % # _ B |.' # K ` ~ 1 =.(.5._.3.<.7.) X > '.              ",
"            d 8 i % C s 6 2 v 3 & 8.8.8.8.8.8.8.8.8.8.8.8.8.8.8.8.8.8.9.0.y 5 5 | D w | > }.Z K ~.a.a.1.}.h b.;.:.z             ",
"            r T |.#.Z t *.'.| * & 8.8.8.8.8.8.8.8.8.8.8.8.8.8.8.8.8.8.8.8.8.8.8.8.8.8.N _ _ y i }.-.c.7.d.2.) <.e.f.            ",
"          g.y i ~ + l x 8 f E d q 8.8.8.8.8.8.8.8.8.8.8.8.8.8.8.8.8.8.8.8.8.8.8.8.8.8.8.8.. . D l 1 g , <.2.-.;.K {.b.          ",
"        h.j A l O A _ < x i.j.V k.8.8.8.8.8.8.8.8.8.8.8.8.8.8.8.8.8.8.8.8.8.8.8.8.8.8.8.8.8._ '.. Q 4 1.l.m.-.5.2.| n.2.        ",
"        %.6 + ; v @.+ | ~  .P + H 8.8.8.8.8.8.8.8.8.8.8.8.8.8.8.8.8.8.8.8.8.8.8.8.8.8.8.8.8.8.- T O ! D [ l.o.e.l.p.' 4         ",
"      m o o w |.|.u q.& n b  .> | 8.8.8.8.8.8.8.8.8.8.8.8.8.8.8.8.8.8.8.8.8.8.8.8.8.8.8.8.8.8.8.y '.= J }.e.1.r.m.r.5.*.,.      ",
"      v b P |.- j x O %.s.t.r 5 |.8.8.8.8.8.8.8.8.8.8.8.8.8.8.8.8.8.8.8.8.8.8.8.8.8.8.8.8.8.8.8.6 m ( : @ B >.a.u.v.w.,.K       ",
"    x.3 A D ; D ; l F / s.t.y.9 z.8.8.8.8.8.8.8.8.8.8.8.& i y | - A.8.8.8.8.8.8.8.8.8.8.8.8.8.8.B.*.*.5 ( C >.d.f.w.p.2.1 /     ",
"    '.F A v _ - # j 6 & 9 C.h.$.D.8.8.8.8.8.8.8.8.8.8.8.s.I _ m 2 ~ |.< | 8.8.8.8.8.8.8.8.8.8.8.8.L Z + l |.C } E.r.F.G.2._     ",
"    n '.f l l H.{ - z c d I...J.h.8.8.8.8.8.8.8.8.8.8.8.K.0 L.& *.u s 2 L ~ 8.8.8.8.8.8.8.8.8.8.8.m.^.k 7.[ [ Y M.N.O.E.@ ;     ",
"  j.m = d s ; + j.v e '.b H.9 P.H 8.8.8.8.8.8.8.8.8.8.8.Q.^ z.I.H 6 +.( l 5 8.8.8.8.8.8.8.8.8.8.8.z u X ` c.f.R.e.F.a.1.o.~.c   ",
"  S.q S.q.z ; # s P A ).L.J.j.* z.8.8.8.8.8.8.8.8.8.8.8.T.U.V.W.q D.%.i.n P 8.8.8.8.8.8.8.8.8.8.8.$ @ < L ) 1.3.c.a.R.a.>.u c   ",
"  I.%.U m 3 f 5 x * X.P ..8 J.H R 8.8.8.8.8.8.8.8.8.8.8.Y.Z.`. +0 %.R H t.x.8.8.8.8.8.8.8.8.8.8.8.g j [.! Y 1.^._.-.^.].[ Y +   ",
"  .+++D.r 7 l _ P i.* 8 = i.8 k.& 8.8.8.8.8.8.8.8.8.8.8.a V.T.$.K.D.%.@+8 8.8.8.8.8.8.8.8.8.8.8.(.J t *.` M ! M } -.4 4 ;.>.s   ",
"  i.p ++g./ o . Q &.t.U F 6.F b J.8.8.8.8.8.8.8.8.8.8.8.#+$+V.%+Q.8.8.8.8.8.8.8.8.8.8.8.8.8.8.8.B K J Z @ 4 ` (.Z X )  .X L j   ",
"  I ] h.U j.q.L.m J.z 7 %.] +.G %.8.8.8.8.8.8.8.8.8.8.8.8.8.8.8.8.8.8.8.8.8.8.8.8.8.8.8.8.8.8.| : 2 2 # # g 1 ' K J  .` g < u Q ",
"&+T ).h.k.).I.b e q.j.z c h.D.@.8 8.8.8.8.8.8.8.8.8.8.8.8.8.8.8.8.8.8.8.8.8.8.8.8.8.8.8.8.8.8.| v $ _ ~ |.i | < w w : | Z o  .> ",
"*+..L.F h.F n 7 &.e H.o ..m j.h...8.8.8.8.8.8.8.8.8.8.8.8.8.8.8.8.8.8.8.8.8.8.8.8.8.8.8.8.=+x e v c + { % . f *.' | A | |.A | (.",
"-+b V i.8 X.] & @.b P c m V .+t.C.8.8.8.8.8.8.8.8.8.8.8.8.8.8.8.8.8.8.8.8.8.8.8.8.8.8.8.6.W '.m O n '.v l y #.).' ; 3 i i [.~ ( ",
";+V >+@.F @.E 8 g.'.6..+m = +.6.b 8.8.8.8.8.8.8.8.8.8.8.8.8.8.8.8.8.8.8.8.8.8.8.8.8.e T d q.e +.3 { b d '.O '.5 l _ s j j *. .O ",
",+t.H.G b H.n E H.q.x.).P @.).S.'.8.8.8.8.8.8.8.8.8.8.8.8.8.8.8.8.8.8.8.8.8.8.8.8.8.@.H.>+S.E I.7 .+I.3 I I * / 6 6 &.m w # B i ",
"'+X.r U q E q / & * r r F t.y.L.I.8.8.8.8.8.8.8.8.8.8.8.b P i.8.8.8.8.8.8.8.8.8.8.8.8.8.8 s.9 & H.%.I.* F >+9 d E 3 A N A |.1 | ",
"  J.S.D.D.X.H.I >+G q L.8 E n H T 8.8.8.8.8.8.8.8.8.8.8.d I P T 8.8.8.8.8.8.8.8.8.8.8.8.)+F >+0 0 I.V D.9 g.q x./ / y l z _ C 3 ",
"  !+^ $.& @+] V I.t.I q.G y.E y.S.8.8.8.8.8.8.8.8.8.8.8.F I.6.W F 8.8.8.8.8.8.8.8.8.8.8.8.8 T W * P.9 t.W.9 ++] S.m O c . l '   ",
"  ~+{+;+]+%.] / & H...b d j.8 d %.8.8.8.8.8.8.8.8.8.8.8.%.U.Z.V.^+C.8.8.8.8.8.8.8.8.8.8.8.8.j.p W I 9 p T.Z.a & I..+8 . = y %   ",
"  /+(+_+:+*+k.J.9 s.X.X.* E b I...8.8.8.8.8.8.8.8.8.8.8.g.C.#+++%+t.8.8.8.8.8.8.8.8.8.8.8.8.8.%+W.d r V.S ] W.U @.d '.= 7 .+b   ",
"  <+]+!+{+[+}+X.] ++* 0 8 q.%.8 8 8.8.8.8.8.8.8.8.8.8.8.j.$.h.!.$+|+a 8.8.8.8.8.8.8.8.8.8.8.8.>+1+Q.K.p %.i.E k.g.!.).7 { &.y.  ",
"  $.$+_+2+3+&+4+5+6+7+8+9+E 1+%.E 8.8.8.8.8.8.8.8.8.8.8.y.j.q.& 8 H _+8.8.8.8.8.8.8.8.8.8.8.8.8. +0 #+>+H.%+@+0 .+8 i.e P ..>+  ",
"    _+|+0+0+a+b+c+d+e+e+f+T.P.|+E 8.8.8.8.8.8.8.8.8.8.8.z.9 G q P.R g+h+8.8.8.8.8.8.8.8.8.8.8.8.8+8+i+#+#+a t...J.S.q.q.>+g.    ",
"    ]+j+6+3+~+k+l+;+;+,+-+'+m+_+n+8.8.8.8.8.8.8.8.8.8.8.q H g.b >+V ^ !+8.8.8.8.8.8.8.8.8.8.8.8.8.<+n+$+o+t.s.1+h.x.* y.* R     ",
"    t.g+d+d+d+p+q+r+a+s+t+q+:+9+~+8.8.8.8.8.8.8.8.8.8.8.U.D.t.] & ] / P.8+8.8.8.8.8.8.8.8.8.8.8.8.f+g+o+z.s.X.P.^ K.H S Q.++    ",
"      u+3+q+a+8+&+<+o+V.~+9+a ++x.8.8.8.8.8.8.8.8.8.8.8.5+o+R H.E x.g.j.@+v+8.8.8.8.8.8.8.8.8.8.8.8._+$.Z.$.Y.V.Y.%+ +8+1+      ",
"      #+b+,+6+f+f+#+^+K.Z.Z.0 ++Q.8.8.8.8.8.8.8.8.8.8.8.w+b+~+T.R 1+n+$.y.z.8.8.8.8.8.8.8.8.8.8.8.8.]+W.#+^ Z.`.Z.H h+a+c+      ",
"        9+e+b+;+x+:+6+n+4+^+7+f+g+8.8.8.8.8.8.8.8.8.8.8.c+3+*+l+q+t+x+c+|+'+8+8.8.8.8.8.8.8.8.8.8.8.8.S #+W.++9+U U.b+-+        ",
"        $.8+/+j+:+3+*+r+l+-+:+0+e+8.8.8.8.8.8.8.8.8.8.8.c+b+x+y+*+y+t+d+t+'+2+8.8.8.8.8.8.8.8.8.8.8.8.u+h+^ o+n+S f+q+*+        ",
"          U /+:+6+*+3+l+d+a+x+z+[+-+'+0+0+g+u+}+8+]+u+*+:+k+h+e+;+,+;+;+t+*+,+t+[+j+8+3+b+7+Q._+2+^+}+/+e+y+l+,+l+l+-+          ",
"            h./+h+l+a+d+c+t+z+,+3+y+2+k+p+h+&+y+g+p+,+j+f+r+}+b+l+c+c+p+x+t+c+c+l+k+[+l+}+2+~+5+2+4+x+s+t+,+-+&+<+{+            ",
"            ] Q.j+t+;+,+,+<+s+f+c+e+,+[+x+t+;+,+t+y+/+q+*+4+8+e+l+,+d+l+3+;+z+p+s+h+2+m+o+9+<+-+b+l+l+[+}+{+5+/+[+b+            ",
"              * 2+x+'+3+u+p+6+s+{+2+u+}+&+0+y+l+y+c+k+d+&+w+]+h+&+5+r+;+d+d+s+,+-+{+r+9+m+y+l+c+t+s+e+3+u+{+m+b+y+              ",
"                f /+6+:+;+y+5+j+:+;+h+_+~+i+o+r+]+]+]+w+q+{+j+}+/+f+~+'+e+r+a+d+b+y+5+b+h+,+-+k+d+[+g+g+5+g+8+*+                ",
"                  - j+t+u+q+t+6+r+s+h+y+e+<+-+<+/+j+8+!+m+f+7+!+{+m+q+q+;+t+:+,+'+d+'+-+,+y+j+]+7+b+m+m+a+l+*+                  ",
"                    T %+,+y+y+a+l+c+r+'+[+&+/+8+r+j+:+'+:+4+}+2+i+u+|+u+y+s+a+}+;+e+;+p+6+;+;+r+d+t+-+'+p+;+                    ",
"                      z 7+R b+p+;+3+l+*+'+*+<+<+0+2+5+d+~+8+u+<+!+~+m+&+f+r+&+y+y+h+d+,+;+3+&+p+{+}+,+[+;+                      ",
"                        c K.8+{+U.t+t+c+'+-+r+6+&+e+{+y+0+f+'+a+*+;+{+0+~+a+i+d+f+m+8+-+6+5+~+2+p+a+s+[+                        ",
"                          B f b r <+q+i+s+k+q+{+y+b+k+;+{+;+c+f+{+_+<+3+y+d+b+{+l+;+r+:+k+q+p+c+&+e+'+                          ",
"                              H.X.W.m+e+u+8+a+r+d+a+l+s+e+y+l+5+2+j+8+_+6+0+j+m+6+5+c+q+;+l+t+;+[+                              ",
"                                g.K.]+9+Y.}+_+*+;+c+&+d+*+,+3+}+e+r+&+c+{+a+t+2+4+[+r+l+p+q+h+p+                                ",
"                                    h.C.U C.p T. +U.9+}+h+&+5+5+:+j+c+,+d+;+*+2+&+l+c+8+j+(+                                    ",
"                                        & j+i+p $+{+'+a+'+c+r+'+6+}+r+{+-+n+c+ +%+W.T.h+                                        ",
"                                              p :+4+<+5+p+a+e+2+5+!+n+]+]+U.k.0 U                                               ",
"                                                        &+*+h+q+4+$+`.P.                                                        "};
